<svg width="20" height="26" viewBox="0 0 20 26" fill="none" xmlns="http://www.w3.org/2000/svg">
<path d="M17.5 5.5H15C15 2.7375 12.7625 0.5 10 0.5C7.2375 0.5 5 2.7375 5 5.5H2.5C1.125 5.5 0 6.625 0 8V23C0 24.375 1.125 25.5 2.5 25.5H17.5C18.875 25.5 20 24.375 20 23V8C20 6.625 18.875 5.5 17.5 5.5ZM10 3C11.375 3 12.5 4.125 12.5 5.5H7.5C7.5 4.125 8.625 3 10 3ZM17.5 23H2.5V8H5V10.5C5 11.1875 5.5625 11.75 6.25 11.75C6.9375 11.75 7.5 11.1875 7.5 10.5V8H12.5V10.5C12.5 11.1875 13.0625 11.75 13.75 11.75C14.4375 11.75 15 11.1875 15 10.5V8H17.5V23Z" fill="black"/>
</svg>
